<svg width="24" height="30" viewBox="0 0 24 30" fill="none" xmlns="http://www.w3.org/2000/svg">
<path d="M9.4904 18.8544L18.2374 10.1106C18.3341 10.0139 18.4481 9.96227 18.5792 9.95564C18.7104 9.94902 18.8306 10.0007 18.9399 10.1106C19.0492 10.2206 19.1043 10.3388 19.1049 10.4653C19.1055 10.5918 19.0509 10.7097 18.941 10.819L10.0529 19.7107C9.89187 19.8717 9.70433 19.9521 9.4904 19.9521C9.27638 19.9521 9.08892 19.8717 8.92793 19.7107L4.90321 15.6871C4.80649 15.5904 4.75614 15.4754 4.75216 15.3423C4.74819 15.2092 4.80052 15.088 4.90918 14.9787C5.01783 14.8694 5.13609 14.8148 5.26394 14.8148C5.3918 14.8148 5.51006 14.8694 5.61871 14.9787L9.4904 18.8544Z" fill="white"/>
</svg>
