<svg width="127" height="37" viewBox="0 0 127 37" fill="none" xmlns="http://www.w3.org/2000/svg">
<path d="M10.8297 1.90277L19.0108 27.6195H19.3248L27.5224 1.90277H35.4556L23.7872 35.751H14.5649L2.88 1.90277H10.8297Z" fill="url(#paint0_linear_589_4803)"/>
<path d="M39.5296 35.751V1.90277H62.3375V7.80306H46.686V15.8685H61.164V21.7688H46.686V29.8507H62.4036V35.751H39.5296Z" fill="url(#paint1_linear_589_4803)"/>
<path d="M74.7372 1.90277L81.563 13.4389H81.8275L88.6864 1.90277H96.7683L86.4386 18.8269L96.9997 35.751H88.769L81.8275 24.1983H81.563L74.6215 35.751H66.4239L77.018 18.8269L66.6222 1.90277H74.7372Z" fill="url(#paint2_linear_589_4803)"/>
<path d="M119.659 11.6374C119.527 10.3042 118.959 9.2685 117.956 8.53027C116.954 7.79205 115.593 7.42293 113.874 7.42293C112.706 7.42293 111.72 7.58821 110.916 7.91876C110.111 8.23829 109.494 8.68453 109.065 9.25748C108.646 9.83043 108.437 10.4805 108.437 11.2077C108.415 11.8137 108.541 12.3426 108.817 12.7944C109.103 13.2461 109.494 13.6373 109.99 13.9678C110.486 14.2873 111.059 14.5683 111.709 14.8107C112.359 15.0421 113.053 15.2404 113.792 15.4057L116.833 16.1329C118.309 16.4634 119.664 16.9042 120.898 17.4551C122.132 18.006 123.201 18.6836 124.105 19.488C125.008 20.2923 125.708 21.2399 126.204 22.3307C126.71 23.4215 126.969 24.6721 126.98 26.0824C126.969 28.1539 126.441 29.9498 125.394 31.4704C124.358 32.9799 122.86 34.1533 120.898 34.9907C118.948 35.8171 116.596 36.2303 113.841 36.2303C111.109 36.2303 108.729 35.8116 106.701 34.9742C104.685 34.1368 103.109 32.8972 101.974 31.2555C100.851 29.6028 100.261 27.5589 100.206 25.1238H107.131C107.208 26.2587 107.533 27.2063 108.106 27.9665C108.69 28.7158 109.467 29.2832 110.436 29.6689C111.417 30.0435 112.524 30.2308 113.758 30.2308C114.971 30.2308 116.023 30.0545 116.915 29.7019C117.819 29.3493 118.518 28.859 119.014 28.231C119.51 27.6029 119.758 26.8812 119.758 26.0659C119.758 25.3056 119.532 24.6666 119.08 24.1487C118.64 23.6308 117.99 23.1901 117.13 22.8265C116.282 22.4629 115.24 22.1324 114.006 21.8349L110.321 20.9093C107.467 20.2152 105.214 19.1299 103.561 17.6534C101.908 16.177 101.087 14.1882 101.098 11.687C101.087 9.63761 101.633 7.84714 102.735 6.3156C103.848 4.78405 105.374 3.58857 107.313 2.72914C109.252 1.86971 111.456 1.44 113.924 1.44C116.436 1.44 118.629 1.86971 120.502 2.72914C122.386 3.58857 123.851 4.78405 124.898 6.3156C125.945 7.84714 126.485 9.62108 126.518 11.6374H119.659Z" fill="url(#paint3_linear_589_4803)"/>
<path d="M7.92666 1.17971L16.084 26.7262H16.3971L24.571 1.17971H32.4812L20.8466 34.8039H11.651L0 1.17971H7.92666Z" fill="white"/>
<path d="M36.5434 34.8039V1.17971H59.2852V7.04095H43.679V15.053H58.1151V20.9142H43.679V28.9426H59.3511V34.8039H36.5434Z" fill="white"/>
<path d="M71.6489 1.17971L78.455 12.6395H78.7187L85.5577 1.17971H93.6162L83.3165 17.9918L93.8469 34.8039H85.6401L78.7187 23.3277H78.455L71.5336 34.8039H63.3597L73.9231 17.9918L63.5575 1.17971H71.6489Z" fill="white"/>
<path d="M116.44 10.8499C116.309 9.52555 115.743 8.49669 114.743 7.76335C113.743 7.03001 112.386 6.66334 110.673 6.66334C109.508 6.66334 108.525 6.82752 107.723 7.15588C106.921 7.47329 106.305 7.91658 105.877 8.48574C105.459 9.0549 105.251 9.70068 105.251 10.4231C105.229 11.0251 105.355 11.5504 105.63 11.9992C105.915 12.448 106.305 12.8365 106.8 13.1649C107.294 13.4823 107.866 13.7614 108.514 14.0022C109.162 14.2321 109.854 14.4291 110.59 14.5933L113.622 15.3157C115.095 15.644 116.446 16.0818 117.676 16.6291C118.907 17.1764 119.972 17.8495 120.873 18.6485C121.774 19.4475 122.472 20.3888 122.966 21.4724C123.472 22.556 123.73 23.7983 123.741 25.1993C123.73 27.257 123.202 29.0411 122.159 30.5516C121.126 32.0511 119.632 33.2168 117.676 34.0486C115.732 34.8696 113.386 35.28 110.64 35.28C107.915 35.28 105.542 34.8641 103.52 34.0322C101.51 33.2004 99.9388 31.969 98.8072 30.3382C97.6866 28.6964 97.0989 26.666 97.0439 24.2471H103.949C104.026 25.3744 104.35 26.3157 104.921 27.071C105.503 27.8153 106.278 28.3789 107.245 28.762C108.223 29.1342 109.327 29.3202 110.557 29.3202C111.766 29.3202 112.815 29.1451 113.705 28.7949C114.606 28.4446 115.303 27.9576 115.798 27.3337C116.292 26.7098 116.539 25.9929 116.539 25.1829C116.539 24.4277 116.314 23.7928 115.864 23.2784C115.424 22.764 114.776 22.3262 113.919 21.965C113.073 21.6038 112.035 21.2754 110.804 20.9799L107.129 20.0605C104.284 19.3709 102.037 18.2928 100.389 16.8261C98.7413 15.3594 97.9228 13.3838 97.9338 10.8992C97.9228 8.86335 98.4667 7.08473 99.5653 5.56333C100.675 4.04192 102.197 2.85435 104.13 2.00061C106.064 1.14687 108.261 0.720001 110.722 0.720001C113.227 0.720001 115.413 1.14687 117.281 2.00061C119.159 2.85435 120.621 4.04192 121.664 5.56333C122.708 7.08473 123.246 8.84694 123.279 10.8499H116.44Z" fill="white"/>
<defs>
<linearGradient id="paint0_linear_589_4803" x1="2.88" y1="18.8351" x2="181.959" y2="18.8351" gradientUnits="userSpaceOnUse">
<stop stop-color="#00FFFF"/>
<stop offset="1" stop-color="#FF00FF"/>
</linearGradient>
<linearGradient id="paint1_linear_589_4803" x1="2.88" y1="18.8351" x2="181.959" y2="18.8351" gradientUnits="userSpaceOnUse">
<stop stop-color="#00FFFF"/>
<stop offset="1" stop-color="#FF00FF"/>
</linearGradient>
<linearGradient id="paint2_linear_589_4803" x1="2.88" y1="18.8351" x2="181.959" y2="18.8351" gradientUnits="userSpaceOnUse">
<stop stop-color="#00FFFF"/>
<stop offset="1" stop-color="#FF00FF"/>
</linearGradient>
<linearGradient id="paint3_linear_589_4803" x1="2.88" y1="18.8351" x2="181.959" y2="18.8351" gradientUnits="userSpaceOnUse">
<stop stop-color="#00FFFF"/>
<stop offset="1" stop-color="#FF00FF"/>
</linearGradient>
</defs>
</svg>
