<svg width="50" height="50" viewBox="0 0 50 50" fill="none" xmlns="http://www.w3.org/2000/svg">
<g clip-path="url(#clip0_215_2999)">
<path d="M45.139 33.9712C46.3445 31.2186 46.9788 28.2211 46.9788 25.1258C46.9788 21.9133 46.2951 18.8063 44.9991 15.969C48.4813 10.6962 51.7472 4.10437 48.7987 1.15597C47.3204 -0.322481 44.7953 -0.378224 41.2943 0.990308C39.215 1.80298 36.6868 3.1807 33.9463 4.99048C31.1462 3.7348 28.0872 3.07342 24.9264 3.07342C21.8367 3.07342 18.8444 3.70556 16.0959 4.90687C10.8027 1.43625 4.17834 -1.80651 1.18848 1.18492C-1.78828 4.16021 1.41047 10.7336 4.84363 15.9906C3.55402 18.822 2.87377 21.9214 2.87377 25.1257C2.87377 28.3067 3.54395 31.3843 4.81527 34.199C3.08481 36.8404 1.79725 39.226 0.986241 41.2979C-0.382192 44.7992 -0.326547 47.324 1.1519 48.8024C1.92018 49.5707 2.97176 49.9553 4.29501 49.9553C5.26415 49.9553 6.3792 49.749 7.63507 49.3358C9.91201 48.5869 12.6246 47.1868 15.7086 45.1705C18.5622 46.4846 21.6907 47.1782 24.9261 47.1782C28.136 47.1782 31.2405 46.4956 34.076 45.2016C37.8506 47.6603 42.3061 49.996 45.6103 49.996C46.8885 49.996 47.9946 49.6463 48.822 48.819C51.8042 45.8371 48.5865 39.2417 45.139 33.9712ZM44.045 25.1257C44.045 27.1866 43.7159 29.1719 43.1097 31.0333C41.6449 29.0151 40.0015 26.9447 38.2113 24.8601C39.9533 22.83 41.557 20.8155 42.9881 18.8568C43.672 20.8217 44.045 22.9308 44.045 25.1257ZM42.3623 3.72268C44.9383 2.71589 46.3219 2.82815 46.7242 3.23038C47.4553 3.96149 47.0648 7.14449 43.3863 13.0512C42.5624 11.7972 41.6053 10.6178 40.5198 9.53233C39.4007 8.41318 38.1816 7.43044 36.884 6.58971C38.9331 5.31203 40.8004 4.33311 42.3623 3.72268ZM41.5912 15.7648C40.0431 17.9845 38.2452 20.2971 36.2517 22.638C34.8753 21.1163 33.4278 19.5944 31.9203 18.087C27.629 13.7957 23.218 9.98336 19.0308 6.93844C20.8886 6.33476 22.8697 6.00705 24.9262 6.00705C32.0697 6.00705 38.3096 9.94571 41.5912 15.7648ZM28.007 31.9225C28.007 31.1136 28.665 30.4556 29.4739 30.4556C30.2827 30.4556 30.9408 31.1136 30.9408 31.9225C30.9408 32.7314 30.2827 33.3894 29.4739 33.3894C28.665 33.3894 28.007 32.7315 28.007 31.9225ZM31.4128 27.9732C30.8274 27.6846 30.1695 27.5218 29.4739 27.5218C27.0473 27.5218 25.0731 29.4959 25.0731 31.9225C25.0731 32.5752 25.2171 33.1945 25.4731 33.7521C22.0874 36.8337 18.6766 39.5791 15.5173 41.7636C9.72454 38.4748 5.80769 32.2495 5.80769 25.1257C5.80769 17.8584 9.88375 11.5257 15.8694 8.29221C20.3481 11.3913 25.1634 15.4789 29.8459 20.1614C31.4038 21.7193 32.8956 23.2917 34.307 24.8613C33.3754 25.8991 32.4092 26.9382 31.4128 27.9732ZM3.26299 3.25943C4.01297 2.50915 7.21827 2.86072 13.1198 6.49123C11.7653 7.35309 10.4955 8.36956 9.33278 9.53224C8.24462 10.6204 7.28545 11.803 6.46027 13.0605C2.86047 7.1931 2.51633 4.00579 3.26299 3.25943ZM3.22651 46.7279C2.82438 46.3258 2.71192 44.942 3.71851 42.3667C4.31154 40.8517 5.23452 39.0704 6.42457 37.1361C7.25778 38.414 8.22878 39.6152 9.33278 40.7192C10.4012 41.7876 11.5604 42.732 12.7922 43.547C7.044 47.0808 3.94236 47.4433 3.22651 46.7279ZM18.6068 43.1697C21.4812 41.0843 24.5114 38.5988 27.5145 35.8615C28.105 36.1564 28.7701 36.3233 29.4738 36.3233C31.9003 36.3233 33.8745 34.3492 33.8745 31.9226C33.8745 31.2616 33.7271 30.6347 33.465 30.0716C34.4222 29.0786 35.3526 28.0811 36.2531 27.0839C38.3131 29.5013 40.1641 31.8925 41.7535 34.1945C38.5182 40.1738 32.1888 44.2444 24.9263 44.2444C22.7126 44.2444 20.586 43.8649 18.6068 43.1697ZM46.7476 46.7446C46.0055 47.4867 42.837 47.1484 37.006 43.5824C38.258 42.7593 39.4358 41.8033 40.5198 40.7193C41.6784 39.5606 42.6916 38.2956 43.5516 36.9465C47.1488 42.8115 47.4941 45.9981 46.7476 46.7446Z" fill="white"/>
</g>
<defs>
<clipPath id="clip0_215_2999">
<rect width="50" height="50" fill="white"/>
</clipPath>
</defs>
</svg>
