<?xml version="1.0" encoding="utf-8"?>
<!-- Generator: Adobe Illustrator 24.3.0, SVG Export Plug-In . SVG Version: 6.00 Build 0)  -->
<svg version="1.1" id="Layer_1" xmlns="http://www.w3.org/2000/svg" xmlns:xlink="http://www.w3.org/1999/xlink" x="0px" y="0px"
	 viewBox="0 0 200 200" enable-background="new 0 0 200 200" xml:space="preserve">
<path fill="#282828" d="M100.382,155.148c-21.4,0-44.2-5.5-44.2-15.7s22.7-15.7,44.2-15.7s44.2,5.5,44.2,15.7
	S121.782,155.148,100.382,155.148z M100.382,128.148c-24.7,0-39.8,6.6-39.8,11.4s15.2,11.4,39.8,11.4s39.8-6.6,39.8-11.4
	S125.082,128.148,100.382,128.148z"/>
<path fill="#282828" d="M98.882,140.848c-6.6,0-12-5.4-12-12c0-1.1,0.9-2,2-2s2,0.9,2,2c0,4.4,3.6,8,8,8s8-3.6,8-8c0-1.1,0.9-2,2-2
	s2,0.9,2,2C110.982,135.448,105.582,140.848,98.882,140.848z"/>
<path fill="#282828" d="M150.382,136.248c-0.6,0-1.2-0.3-1.6-0.7l-13.1-16.4c-4.7-5.9-6.7-13.5-5.5-20.9l0.4-2.3
	c1.3-7.9-0.9-16-6-22.1c-5.1-6.1-12.7-9.6-20.7-9.6h-6.9c-8,0-15.6,3.5-20.8,9.6c-5.2,6.1-7.4,14.2-6,22.1l0.4,2.3
	c1.3,7.4-0.7,15.1-5.5,20.9l-13.1,16.4c-0.7,0.9-1.9,1-2.8,0.3c-0.9-0.7-1-2-0.3-2.8l13.1-16.3c4-5,5.7-11.5,4.6-17.8l-0.4-2.3
	c-1.5-9.1,1-18.3,6.9-25.3c6-7.1,14.6-11.1,23.8-11.1h6.9c9.2,0,17.9,4,23.8,11.1c5.9,7,8.5,16.3,6.9,25.3l-0.4,2.3
	c-1.1,6.3,0.6,12.8,4.6,17.8l13.1,16.3c0.7,0.9,0.6,2.1-0.3,2.8C151.282,136.148,150.782,136.248,150.382,136.248z"/>
<path fill="#282828" d="M108.382,64.248h-16c-1.1,0-2-0.9-2-2v-8.1c0-5.5,4.4-9.9,9.9-9.9c5.7,0,10.1,4.4,10.1,9.9v8.1
	C110.382,63.348,109.482,64.248,108.382,64.248z M94.382,60.248h12v-6.1c0-3.2-2.7-5.9-5.9-5.9c-3.4,0-6.1,2.7-6.1,5.9V60.248z"/>
</svg>
