<svg width="522" height="522" viewBox="0 0 522 522" fill="none" xmlns="http://www.w3.org/2000/svg">
<path d="M260.5 404.226C260.499 402.129 260.911 400.052 261.713 398.114C262.515 396.176 263.691 394.415 265.174 392.932C266.657 391.449 268.418 390.273 270.356 389.471C272.294 388.669 274.371 388.257 276.469 388.258H340.344C340.344 379.788 336.979 371.665 330.989 365.676C325 359.687 316.877 356.323 308.406 356.323H212.594C204.123 356.323 196 359.687 190.011 365.676C184.021 371.665 180.656 379.788 180.656 388.258H212.594C216.829 388.258 220.891 389.94 223.885 392.935C226.88 395.929 228.562 399.991 228.562 404.226C228.562 408.461 226.88 412.522 223.885 415.517C220.891 418.511 216.829 420.194 212.594 420.194H180.656C180.656 428.663 184.021 436.786 190.011 442.775C196 448.764 204.123 452.129 212.594 452.129H308.406C316.877 452.129 325 448.764 330.989 442.775C336.979 436.786 340.344 428.663 340.344 420.194H276.469C272.234 420.194 268.172 418.511 265.177 415.517C262.182 412.522 260.5 408.461 260.5 404.226Z" fill="black"/>
<path d="M212.594 436.129H308.406V468.097C308.406 480.802 303.359 492.986 294.375 501.969C285.391 510.953 273.206 516 260.5 516C247.794 516 235.609 510.953 226.625 501.969C217.641 492.986 212.594 480.802 212.594 468.097V436.129Z" fill="black"/>
<path d="M52.9062 180.645H20.9688C16.7336 180.645 12.6719 178.963 9.67714 175.969C6.68242 172.974 5 168.913 5 164.678C5 160.443 6.68242 156.381 9.67714 153.387C12.6719 150.392 16.7336 148.71 20.9688 148.71H52.9062C57.1414 148.71 61.2031 150.392 64.1979 153.387C67.1926 156.381 68.875 160.443 68.875 164.678C68.875 168.913 67.1926 172.974 64.1979 175.969C61.2031 178.963 57.1414 180.645 52.9062 180.645Z" fill="black"/>
<path d="M84.1102 71.2104C81.1398 71.2106 78.2284 70.381 75.7042 68.8153L48.5573 51.9741C44.9583 49.7412 42.3937 46.1702 41.4277 42.0466C40.4618 37.9229 41.1736 33.5845 43.4066 29.9857C45.6396 26.3869 49.2109 23.8224 53.3347 22.8566C57.4586 21.8907 61.7973 22.6024 65.3964 24.8353L92.5433 41.6765C95.4968 43.5068 97.7726 46.2504 99.0256 49.4911C100.279 52.7318 100.44 56.2928 99.4862 59.6337C98.532 62.9746 96.5142 65.9132 93.7387 68.0036C90.9633 70.094 87.5849 71.2157 84.1102 71.2104Z" fill="black"/>
<path d="M56.9927 306.984C53.5178 306.99 50.136 305.862 47.3603 303.771C44.5845 301.681 42.5664 298.743 41.6121 295.402C40.6578 292.061 40.8193 288.499 42.0723 285.259C43.3252 282.018 45.6012 279.274 48.5548 277.444L75.7016 260.602C77.4837 259.496 79.4662 258.752 81.5359 258.412C83.6056 258.072 85.722 258.143 87.7642 258.621C89.8064 259.099 91.7345 259.975 93.4384 261.198C95.1423 262.421 96.5885 263.968 97.6946 265.75C98.8007 267.532 99.5449 269.514 99.8849 271.583C100.225 273.653 100.154 275.769 99.6757 277.811C99.1977 279.853 98.3222 281.781 97.099 283.485C95.8759 285.189 94.3291 286.635 92.5471 287.741L65.4002 304.582C62.8763 306.151 59.9643 306.983 56.9927 306.984Z" fill="black"/>
<path d="M500.031 180.645H468.094C463.859 180.645 459.797 178.963 456.802 175.969C453.807 172.974 452.125 168.913 452.125 164.678C452.125 160.443 453.807 156.381 456.802 153.387C459.797 150.392 463.859 148.71 468.094 148.71H500.031C504.266 148.71 508.328 150.392 511.323 153.387C514.318 156.381 516 160.443 516 164.678C516 168.913 514.318 172.974 511.323 175.969C508.328 178.963 504.266 180.645 500.031 180.645Z" fill="black"/>
<path d="M436.89 71.2105C433.415 71.2157 430.033 70.0876 427.258 67.9972C424.482 65.9068 422.464 62.9682 421.51 59.6273C420.556 56.2864 420.718 52.7255 421.971 49.4847C423.224 46.244 425.5 43.5004 428.453 41.6701L455.6 24.8289C459.197 22.6412 463.513 21.9624 467.608 22.9403C471.703 23.9181 475.246 26.4735 477.466 30.0504C479.686 33.6272 480.404 37.9362 479.463 42.0396C478.523 46.143 475.999 49.7089 472.442 51.9613L445.295 68.8025C442.773 70.3727 439.861 71.2067 436.89 71.2105Z" fill="black"/>
<path d="M464.008 306.984C461.038 306.984 458.127 306.154 455.603 304.589L428.456 287.747C426.654 286.651 425.087 285.209 423.846 283.504C422.604 281.799 421.713 279.865 421.223 277.814C420.733 275.763 420.654 273.634 420.991 271.553C421.329 269.471 422.075 267.476 423.187 265.684C424.3 263.892 425.756 262.338 427.472 261.112C429.188 259.886 431.131 259.012 433.186 258.541C435.242 258.07 437.371 258.01 439.45 258.366C441.529 258.722 443.517 259.487 445.299 260.615L472.446 277.456C475.399 279.287 477.675 282.03 478.928 285.271C480.181 288.512 480.343 292.073 479.388 295.414C478.434 298.755 476.416 301.694 473.64 303.784C470.864 305.874 467.483 306.989 464.008 306.984Z" fill="black"/>
<path d="M165.33 36.2278C194.156 14.9459 229.301 3.97346 265.116 5.07544C305.571 6.89225 343.882 23.7778 372.517 52.4104C401.151 81.0429 418.037 119.351 419.854 159.803C420.815 189.213 413.609 218.316 399.036 243.88C384.463 269.445 363.092 290.473 337.295 304.631C333.424 306.868 330.18 310.046 327.863 313.869C325.547 317.693 324.232 322.039 324.041 326.506C318.84 325.08 313.465 324.382 308.072 324.431H212.26C206.867 324.382 201.492 325.08 196.291 326.506C196.104 321.998 194.776 317.611 192.43 313.757C190.083 309.903 186.796 306.707 182.877 304.471C151.524 287.125 126.914 259.741 113.004 226.722C99.0935 193.703 96.6903 156.965 106.181 122.415C115.671 87.8652 136.504 57.5097 165.33 36.2278ZM272.452 77.6116C250.957 77.6116 229.287 78.5438 207.559 80.2913C205.345 80.5243 204.238 81.3977 204.238 83.3782V156.481H187.403C184.957 156.481 183.85 157.588 183.85 159.801V175.295C183.85 177.508 184.957 178.615 187.403 178.615H204.238V200.983H187.403C184.957 200.983 183.85 202.09 183.85 204.303V220.03C183.85 222.243 184.957 223.35 187.403 223.35H204.238V248.864C204.238 251.776 204.879 252.416 207.559 252.416H241.869C244.549 252.416 245.189 251.717 245.189 248.864V223.35H283.928C286.374 223.35 287.481 222.243 287.481 220.03V204.303C287.481 202.09 286.374 200.983 283.928 200.983H245.189V187.061H272.51C297.5 187.061 311.947 184.789 322.549 176.867C333.151 168.946 336.704 155.84 336.704 133.705C336.704 111.979 332.044 97.1243 322.724 89.3772C313.636 81.5721 296.801 77.6116 272.452 77.6116ZM268.024 113.318C278.918 113.318 285.967 114.658 289.753 117.512C293.539 120.191 295.287 125.958 295.287 134.812C295.287 143.899 293.539 149.607 289.753 152.52C286.199 155.141 278.859 156.481 268.024 156.481H245.189V113.318H268.024Z" fill="black"/>
</svg>
