<svg width="154" height="68" viewBox="0 0 154 68" fill="none" xmlns="http://www.w3.org/2000/svg">
<path d="M78.696 2.71359C77.9127 1.46026 76.0873 1.46026 75.304 2.71359L72 8L82 8L78.696 2.71359Z" fill="#343452"/>
<rect y="8" width="154" height="60" rx="8" fill="#343452"/>
<path d="M12.5795 25.2102V24.2727H19.125V25.2102H16.3807V33H15.3239V25.2102H12.5795ZM21.5654 29.0625V33H20.5597V24.2727H21.5654V27.4773H21.6506C21.804 27.1392 22.0341 26.8707 22.3409 26.6719C22.6506 26.4702 23.0625 26.3693 23.5767 26.3693C24.0227 26.3693 24.4134 26.4588 24.7486 26.6378C25.0838 26.8139 25.3438 27.0852 25.5284 27.4517C25.7159 27.8153 25.8097 28.2784 25.8097 28.8409V33H24.804V28.9091C24.804 28.3892 24.669 27.9872 24.3992 27.7031C24.1321 27.4162 23.7614 27.2727 23.2869 27.2727C22.9574 27.2727 22.6619 27.3423 22.4006 27.4815C22.1421 27.6207 21.9375 27.8239 21.7869 28.0909C21.6392 28.358 21.5654 28.6818 21.5654 29.0625ZM27.5895 33V26.4545H28.5952V33H27.5895ZM28.1009 25.3636C27.9049 25.3636 27.7358 25.2969 27.5938 25.1634C27.4546 25.0298 27.385 24.8693 27.385 24.6818C27.385 24.4943 27.4546 24.3338 27.5938 24.2003C27.7358 24.0668 27.9049 24 28.1009 24C28.2969 24 28.4645 24.0668 28.6037 24.2003C28.7458 24.3338 28.8168 24.4943 28.8168 24.6818C28.8168 24.8693 28.7458 25.0298 28.6037 25.1634C28.4645 25.2969 28.2969 25.3636 28.1009 25.3636ZM35.0135 27.9205L34.1101 28.1761C34.0533 28.0256 33.9695 27.8793 33.8587 27.7372C33.7508 27.5923 33.603 27.473 33.4155 27.3793C33.228 27.2855 32.988 27.2386 32.6954 27.2386C32.2948 27.2386 31.961 27.331 31.6939 27.5156C31.4297 27.6974 31.2976 27.929 31.2976 28.2102C31.2976 28.4602 31.3885 28.6577 31.5704 28.8026C31.7522 28.9474 32.0363 29.0682 32.4226 29.1648L33.3942 29.4034C33.9794 29.5455 34.4155 29.7628 34.7025 30.0554C34.9894 30.3452 35.1329 30.7187 35.1329 31.1761C35.1329 31.5511 35.0249 31.8864 34.809 32.1818C34.5959 32.4773 34.2976 32.7102 33.9141 32.8807C33.5306 33.0511 33.0846 33.1364 32.576 33.1364C31.9084 33.1364 31.3559 32.9915 30.9184 32.7017C30.4809 32.4119 30.2039 31.9886 30.0874 31.4318L31.0419 31.1932C31.1329 31.5455 31.3047 31.8097 31.5576 31.9858C31.8133 32.1619 32.1471 32.25 32.559 32.25C33.0277 32.25 33.3999 32.1506 33.6755 31.9517C33.9539 31.75 34.0931 31.5085 34.0931 31.2273C34.0931 31 34.0135 30.8097 33.8544 30.6562C33.6954 30.5 33.451 30.3835 33.1215 30.3068L32.0306 30.0511C31.4312 29.9091 30.9908 29.6889 30.7096 29.3906C30.4312 29.0895 30.2919 28.7131 30.2919 28.2614C30.2919 27.892 30.3956 27.5653 30.603 27.2812C30.8133 26.9972 31.0988 26.7741 31.4596 26.6122C31.8232 26.4503 32.2351 26.3693 32.6954 26.3693C33.3431 26.3693 33.8516 26.5114 34.2209 26.7955C34.5931 27.0795 34.8573 27.4545 35.0135 27.9205ZM39.9017 33V26.4545H40.9074V33H39.9017ZM40.4131 25.3636C40.217 25.3636 40.048 25.2969 39.906 25.1634C39.7668 25.0298 39.6972 24.8693 39.6972 24.6818C39.6972 24.4943 39.7668 24.3338 39.906 24.2003C40.048 24.0668 40.217 24 40.4131 24C40.6091 24 40.7767 24.0668 40.9159 24.2003C41.058 24.3338 41.129 24.4943 41.129 24.6818C41.129 24.8693 41.058 25.0298 40.9159 25.1634C40.7767 25.2969 40.6091 25.3636 40.4131 25.3636ZM47.3257 27.9205L46.4223 28.1761C46.3655 28.0256 46.2817 27.8793 46.1709 27.7372C46.0629 27.5923 45.9152 27.473 45.7277 27.3793C45.5402 27.2855 45.3002 27.2386 45.0075 27.2386C44.607 27.2386 44.2732 27.331 44.0061 27.5156C43.7419 27.6974 43.6098 27.929 43.6098 28.2102C43.6098 28.4602 43.7007 28.6577 43.8825 28.8026C44.0644 28.9474 44.3485 29.0682 44.7348 29.1648L45.7064 29.4034C46.2916 29.5455 46.7277 29.7628 47.0146 30.0554C47.3016 30.3452 47.445 30.7187 47.445 31.1761C47.445 31.5511 47.3371 31.8864 47.1212 32.1818C46.9081 32.4773 46.6098 32.7102 46.2263 32.8807C45.8428 33.0511 45.3967 33.1364 44.8882 33.1364C44.2206 33.1364 43.6681 32.9915 43.2306 32.7017C42.7931 32.4119 42.5161 31.9886 42.3996 31.4318L43.3541 31.1932C43.445 31.5455 43.6169 31.8097 43.8698 31.9858C44.1254 32.1619 44.4592 32.25 44.8712 32.25C45.3399 32.25 45.7121 32.1506 45.9877 31.9517C46.2661 31.75 46.4053 31.5085 46.4053 31.2273C46.4053 31 46.3257 30.8097 46.1666 30.6562C46.0075 30.5 45.7632 30.3835 45.4337 30.3068L44.3428 30.0511C43.7433 29.9091 43.303 29.6889 43.0217 29.3906C42.7433 29.0895 42.6041 28.7131 42.6041 28.2614C42.6041 27.892 42.7078 27.5653 42.9152 27.2812C43.1254 26.9972 43.411 26.7741 43.7717 26.6122C44.1354 26.4503 44.5473 26.3693 45.0075 26.3693C45.6553 26.3693 46.1638 26.5114 46.5331 26.7955C46.9053 27.0795 47.1695 27.4545 47.3257 27.9205ZM54.14 33.1534C53.7253 33.1534 53.3488 33.0753 53.0108 32.919C52.6727 32.7599 52.4042 32.5312 52.2054 32.233C52.0065 31.9318 51.9071 31.5682 51.9071 31.142C51.9071 30.767 51.9809 30.4631 52.1287 30.2301C52.2764 29.9943 52.4738 29.8097 52.721 29.6761C52.9682 29.5426 53.2409 29.4432 53.5392 29.3778C53.8403 29.3097 54.1429 29.2557 54.4468 29.2159C54.8446 29.1648 55.167 29.1264 55.4142 29.1009C55.6642 29.0724 55.846 29.0256 55.9596 28.9602C56.0761 28.8949 56.1343 28.7812 56.1343 28.6193V28.5852C56.1343 28.1648 56.0193 27.8381 55.7892 27.6051C55.5619 27.3722 55.2167 27.2557 54.7537 27.2557C54.2736 27.2557 53.8971 27.3608 53.6244 27.571C53.3517 27.7812 53.1599 28.0057 53.0491 28.2443L52.0946 27.9034C52.265 27.5057 52.4923 27.196 52.7764 26.9744C53.0633 26.75 53.3758 26.5937 53.7139 26.5057C54.0548 26.4148 54.39 26.3693 54.7196 26.3693C54.9298 26.3693 55.1713 26.3949 55.444 26.446C55.7196 26.4943 55.9852 26.5952 56.2409 26.7486C56.4994 26.902 56.7139 27.1335 56.8843 27.4432C57.0548 27.7528 57.14 28.1676 57.14 28.6875V33H56.1343V32.1136H56.0832C56.015 32.2557 55.9014 32.4077 55.7423 32.5696C55.5832 32.7315 55.3716 32.8693 55.1074 32.983C54.8432 33.0966 54.5207 33.1534 54.14 33.1534ZM54.2934 32.25C54.6912 32.25 55.0264 32.1719 55.2991 32.0156C55.5747 31.8594 55.7821 31.6577 55.9213 31.4105C56.0633 31.1634 56.1343 30.9034 56.1343 30.6307V29.7102C56.0917 29.7614 55.998 29.8082 55.8531 29.8509C55.7111 29.8906 55.5463 29.9261 55.3588 29.9574C55.1741 29.9858 54.9937 30.0114 54.8176 30.0341C54.6443 30.054 54.5037 30.071 54.3957 30.0852C54.1343 30.1193 53.89 30.1747 53.6628 30.2514C53.4383 30.3253 53.2565 30.4375 53.1173 30.5881C52.9809 30.7358 52.9128 30.9375 52.9128 31.1932C52.9128 31.5426 53.042 31.8068 53.3005 31.9858C53.5619 32.1619 53.8929 32.25 54.2934 32.25ZM65.0772 26.4545V27.3068H61.6852V26.4545H65.0772ZM62.6738 24.8864H63.6795V31.125C63.6795 31.4091 63.7207 31.6222 63.8031 31.7642C63.8883 31.9034 63.9962 31.9972 64.1269 32.0455C64.2604 32.0909 64.4011 32.1136 64.5488 32.1136C64.6596 32.1136 64.7505 32.108 64.8215 32.0966C64.8925 32.0824 64.9494 32.071 64.992 32.0625L65.1965 32.9659C65.1283 32.9915 65.0332 33.017 64.911 33.0426C64.7889 33.071 64.634 33.0852 64.4465 33.0852C64.1624 33.0852 63.884 33.0241 63.6113 32.902C63.3414 32.7798 63.117 32.5938 62.938 32.3438C62.7619 32.0938 62.6738 31.7784 62.6738 31.3977V24.8864ZM66.53 33V26.4545H67.5357V33H66.53ZM67.0413 25.3636C66.8453 25.3636 66.6763 25.2969 66.5342 25.1634C66.395 25.0298 66.3254 24.8693 66.3254 24.6818C66.3254 24.4943 66.395 24.3338 66.5342 24.2003C66.6763 24.0668 66.8453 24 67.0413 24C67.2374 24 67.405 24.0668 67.5442 24.2003C67.6862 24.3338 67.7573 24.4943 67.7573 24.6818C67.7573 24.8693 67.6862 25.0298 67.5442 25.1634C67.405 25.2969 67.2374 25.3636 67.0413 25.3636ZM69.3176 35.4545V26.4545H70.2892V27.4943H70.4085C70.4824 27.3807 70.5847 27.2358 70.7154 27.0597C70.8489 26.8807 71.0392 26.7216 71.2864 26.5824C71.5364 26.4403 71.8745 26.3693 72.3006 26.3693C72.8517 26.3693 73.3375 26.5071 73.758 26.7827C74.1784 27.0582 74.5066 27.4489 74.7424 27.9545C74.9782 28.4602 75.096 29.0568 75.096 29.7443C75.096 30.4375 74.9782 31.0384 74.7424 31.5469C74.5066 32.0526 74.1799 32.4446 73.7622 32.723C73.3446 32.9986 72.8631 33.1364 72.3176 33.1364C71.8972 33.1364 71.5605 33.0668 71.3077 32.9276C71.0549 32.7855 70.8603 32.625 70.7239 32.446C70.5875 32.2642 70.4824 32.1136 70.4085 31.9943H70.3233V35.4545H69.3176ZM70.3063 29.7273C70.3063 30.2216 70.3787 30.6577 70.5236 31.0355C70.6685 31.4105 70.8801 31.7045 71.1585 31.9176C71.437 32.1278 71.7779 32.233 72.1813 32.233C72.6017 32.233 72.9526 32.1222 73.2338 31.9006C73.5179 31.6761 73.731 31.375 73.873 30.9972C74.0179 30.6165 74.0904 30.1932 74.0904 29.7273C74.0904 29.267 74.0193 28.8523 73.8773 28.483C73.7381 28.1108 73.5264 27.8168 73.2424 27.6009C72.9611 27.3821 72.6074 27.2727 72.1813 27.2727C71.7722 27.2727 71.4284 27.3764 71.15 27.5838C70.8716 27.7884 70.6614 28.0753 70.5193 28.4446C70.3773 28.8111 70.3063 29.2386 70.3063 29.7273ZM82.7317 26.4545V27.3068H79.3397V26.4545H82.7317ZM80.3283 24.8864H81.334V31.125C81.334 31.4091 81.3752 31.6222 81.4576 31.7642C81.5428 31.9034 81.6508 31.9972 81.7815 32.0455C81.915 32.0909 82.0556 32.1136 82.2033 32.1136C82.3141 32.1136 82.405 32.108 82.4761 32.0966C82.5471 32.0824 82.6039 32.071 82.6465 32.0625L82.8511 32.9659C82.7829 32.9915 82.6877 33.017 82.5655 33.0426C82.4434 33.071 82.2886 33.0852 82.1011 33.0852C81.817 33.0852 81.5386 33.0241 81.2658 32.902C80.9959 32.7798 80.7715 32.5938 80.5925 32.3438C80.4164 32.0938 80.3283 31.7784 80.3283 31.3977V24.8864ZM86.7733 33.1364C86.1824 33.1364 85.6639 32.9957 85.2179 32.7145C84.7747 32.4332 84.4281 32.0398 84.1781 31.5341C83.931 31.0284 83.8074 30.4375 83.8074 29.7614C83.8074 29.0795 83.931 28.4844 84.1781 27.9759C84.4281 27.4673 84.7747 27.0724 85.2179 26.7912C85.6639 26.5099 86.1824 26.3693 86.7733 26.3693C87.3642 26.3693 87.8812 26.5099 88.3244 26.7912C88.7705 27.0724 89.117 27.4673 89.3642 27.9759C89.6142 28.4844 89.7392 29.0795 89.7392 29.7614C89.7392 30.4375 89.6142 31.0284 89.3642 31.5341C89.117 32.0398 88.7705 32.4332 88.3244 32.7145C87.8812 32.9957 87.3642 33.1364 86.7733 33.1364ZM86.7733 32.233C87.2222 32.233 87.5915 32.1179 87.8812 31.8878C88.171 31.6577 88.3855 31.3551 88.5247 30.9801C88.6639 30.6051 88.7335 30.1989 88.7335 29.7614C88.7335 29.3239 88.6639 28.9162 88.5247 28.5384C88.3855 28.1605 88.171 27.8551 87.8812 27.6222C87.5915 27.3892 87.2222 27.2727 86.7733 27.2727C86.3244 27.2727 85.9551 27.3892 85.6653 27.6222C85.3756 27.8551 85.1611 28.1605 85.0219 28.5384C84.8827 28.9162 84.8131 29.3239 84.8131 29.7614C84.8131 30.1989 84.8827 30.6051 85.0219 30.9801C85.1611 31.3551 85.3756 31.6577 85.6653 31.8878C85.9551 32.1179 86.3244 32.233 86.7733 32.233ZM95.535 29.0625V33H94.5294V24.2727H95.535V27.4773H95.6203C95.7737 27.1392 96.0038 26.8707 96.3106 26.6719C96.6203 26.4702 97.0322 26.3693 97.5464 26.3693C97.9924 26.3693 98.3831 26.4588 98.7183 26.6378C99.0535 26.8139 99.3135 27.0852 99.4981 27.4517C99.6856 27.8153 99.7794 28.2784 99.7794 28.8409V33H98.7737V28.9091C98.7737 28.3892 98.6387 27.9872 98.3689 27.7031C98.1018 27.4162 97.7311 27.2727 97.2566 27.2727C96.9271 27.2727 96.6316 27.3423 96.3703 27.4815C96.1118 27.6207 95.9072 27.8239 95.7566 28.0909C95.6089 28.358 95.535 28.6818 95.535 29.0625ZM104.304 33.1364C103.673 33.1364 103.129 32.9972 102.671 32.7188C102.217 32.4375 101.866 32.0455 101.619 31.5426C101.375 31.0369 101.252 30.4489 101.252 29.7784C101.252 29.108 101.375 28.517 101.619 28.0057C101.866 27.4915 102.21 27.0909 102.65 26.804C103.093 26.5142 103.61 26.3693 104.201 26.3693C104.542 26.3693 104.879 26.4261 105.211 26.5398C105.544 26.6534 105.846 26.8381 106.119 27.0938C106.392 27.3466 106.609 27.6818 106.771 28.0994C106.933 28.517 107.014 29.0312 107.014 29.642V30.0682H101.968V29.1989H105.991C105.991 28.8295 105.917 28.5 105.769 28.2102C105.625 27.9205 105.417 27.6918 105.147 27.5241C104.88 27.3565 104.565 27.2727 104.201 27.2727C103.801 27.2727 103.454 27.3722 103.161 27.571C102.872 27.767 102.649 28.0227 102.492 28.3381C102.336 28.6534 102.258 28.9915 102.258 29.3523V29.9318C102.258 30.4261 102.343 30.8452 102.514 31.1889C102.687 31.5298 102.927 31.7898 103.234 31.9688C103.541 32.1449 103.897 32.233 104.304 32.233C104.568 32.233 104.806 32.196 105.019 32.1222C105.235 32.0455 105.421 31.9318 105.578 31.7812C105.734 31.6278 105.855 31.4375 105.94 31.2102L106.911 31.483C106.809 31.8125 106.637 32.1023 106.396 32.3523C106.154 32.5994 105.856 32.7926 105.501 32.9318C105.146 33.0682 104.747 33.1364 104.304 33.1364ZM109.489 24.2727V33H108.484V24.2727H109.489ZM111.271 35.4545V26.4545H112.243V27.4943H112.362C112.436 27.3807 112.538 27.2358 112.669 27.0597C112.802 26.8807 112.993 26.7216 113.24 26.5824C113.49 26.4403 113.828 26.3693 114.254 26.3693C114.805 26.3693 115.291 26.5071 115.712 26.7827C116.132 27.0582 116.46 27.4489 116.696 27.9545C116.932 28.4602 117.05 29.0568 117.05 29.7443C117.05 30.4375 116.932 31.0384 116.696 31.5469C116.46 32.0526 116.133 32.4446 115.716 32.723C115.298 32.9986 114.817 33.1364 114.271 33.1364C113.851 33.1364 113.514 33.0668 113.261 32.9276C113.008 32.7855 112.814 32.625 112.677 32.446C112.541 32.2642 112.436 32.1136 112.362 31.9943H112.277V35.4545H111.271ZM112.26 29.7273C112.26 30.2216 112.332 30.6577 112.477 31.0355C112.622 31.4105 112.834 31.7045 113.112 31.9176C113.391 32.1278 113.731 32.233 114.135 32.233C114.555 32.233 114.906 32.1222 115.187 31.9006C115.472 31.6761 115.685 31.375 115.827 30.9972C115.972 30.6165 116.044 30.1932 116.044 29.7273C116.044 29.267 115.973 28.8523 115.831 28.483C115.692 28.1108 115.48 27.8168 115.196 27.6009C114.915 27.3821 114.561 27.2727 114.135 27.2727C113.726 27.2727 113.382 27.3764 113.104 27.5838C112.825 27.7884 112.615 28.0753 112.473 28.4446C112.331 28.8111 112.26 29.2386 112.26 29.7273ZM122.486 35.4545C122.316 35.4545 122.164 35.4403 122.03 35.4119C121.897 35.3864 121.805 35.3608 121.754 35.3352L122.009 34.4489C122.254 34.5114 122.469 34.5341 122.657 34.517C122.844 34.5 123.011 34.4162 123.155 34.2656C123.303 34.1179 123.438 33.8778 123.56 33.5455L123.748 33.0341L121.327 26.4545H122.418L124.225 31.6705H124.293L126.1 26.4545H127.191L124.413 33.9545C124.288 34.2926 124.133 34.5724 123.948 34.794C123.763 35.0185 123.549 35.1847 123.305 35.2926C123.063 35.4006 122.79 35.4545 122.486 35.4545ZM130.883 33.1364C130.292 33.1364 129.774 32.9957 129.328 32.7145C128.885 32.4332 128.538 32.0398 128.288 31.5341C128.041 31.0284 127.917 30.4375 127.917 29.7614C127.917 29.0795 128.041 28.4844 128.288 27.9759C128.538 27.4673 128.885 27.0724 129.328 26.7912C129.774 26.5099 130.292 26.3693 130.883 26.3693C131.474 26.3693 131.991 26.5099 132.434 26.7912C132.88 27.0724 133.227 27.4673 133.474 27.9759C133.724 28.4844 133.849 29.0795 133.849 29.7614C133.849 30.4375 133.724 31.0284 133.474 31.5341C133.227 32.0398 132.88 32.4332 132.434 32.7145C131.991 32.9957 131.474 33.1364 130.883 33.1364ZM130.883 32.233C131.332 32.233 131.701 32.1179 131.991 31.8878C132.281 31.6577 132.495 31.3551 132.635 30.9801C132.774 30.6051 132.843 30.1989 132.843 29.7614C132.843 29.3239 132.774 28.9162 132.635 28.5384C132.495 28.1605 132.281 27.8551 131.991 27.6222C131.701 27.3892 131.332 27.2727 130.883 27.2727C130.434 27.2727 130.065 27.3892 129.775 27.6222C129.485 27.8551 129.271 28.1605 129.132 28.5384C128.993 28.9162 128.923 29.3239 128.923 29.7614C128.923 30.1989 128.993 30.6051 129.132 30.9801C129.271 31.3551 129.485 31.6577 129.775 31.8878C130.065 32.1179 130.434 32.233 130.883 32.233ZM139.449 30.3239V26.4545H140.455V33H139.449V31.892H139.381C139.228 32.2244 138.989 32.5071 138.665 32.7401C138.341 32.9702 137.932 33.0852 137.438 33.0852C137.029 33.0852 136.665 32.9957 136.347 32.8168C136.029 32.6349 135.779 32.3622 135.597 31.9986C135.415 31.6321 135.324 31.1705 135.324 30.6136V26.4545H136.33V30.5455C136.33 31.0227 136.463 31.4034 136.73 31.6875C137 31.9716 137.344 32.1136 137.762 32.1136C138.012 32.1136 138.266 32.0497 138.524 31.9219C138.786 31.794 139.005 31.598 139.181 31.3338C139.36 31.0696 139.449 30.733 139.449 30.3239ZM14.8466 51.1534C14.4318 51.1534 14.0554 51.0753 13.7173 50.919C13.3793 50.7599 13.1108 50.5312 12.9119 50.233C12.7131 49.9318 12.6136 49.5682 12.6136 49.142C12.6136 48.767 12.6875 48.4631 12.8352 48.2301C12.983 47.9943 13.1804 47.8097 13.4276 47.6761C13.6747 47.5426 13.9474 47.4432 14.2457 47.3778C14.5469 47.3097 14.8494 47.2557 15.1534 47.2159C15.5511 47.1648 15.8736 47.1264 16.1207 47.1009C16.3707 47.0724 16.5526 47.0256 16.6662 46.9602C16.7827 46.8949 16.8409 46.7812 16.8409 46.6193V46.5852C16.8409 46.1648 16.7259 45.8381 16.4957 45.6051C16.2685 45.3722 15.9233 45.2557 15.4602 45.2557C14.9801 45.2557 14.6037 45.3608 14.331 45.571C14.0582 45.7812 13.8665 46.0057 13.7557 46.2443L12.8011 45.9034C12.9716 45.5057 13.1989 45.196 13.483 44.9744C13.7699 44.75 14.0824 44.5937 14.4205 44.5057C14.7614 44.4148 15.0966 44.3693 15.4261 44.3693C15.6364 44.3693 15.8778 44.3949 16.1506 44.446C16.4261 44.4943 16.6918 44.5952 16.9474 44.7486C17.206 44.902 17.4205 45.1335 17.5909 45.4432C17.7614 45.7528 17.8466 46.1676 17.8466 46.6875V51H16.8409V50.1136H16.7898C16.7216 50.2557 16.608 50.4077 16.4489 50.5696C16.2898 50.7315 16.0781 50.8693 15.8139 50.983C15.5497 51.0966 15.2273 51.1534 14.8466 51.1534ZM15 50.25C15.3977 50.25 15.733 50.1719 16.0057 50.0156C16.2813 49.8594 16.4886 49.6577 16.6278 49.4105C16.7699 49.1634 16.8409 48.9034 16.8409 48.6307V47.7102C16.7983 47.7614 16.7045 47.8082 16.5597 47.8509C16.4176 47.8906 16.2528 47.9261 16.0653 47.9574C15.8807 47.9858 15.7003 48.0114 15.5241 48.0341C15.3509 48.054 15.2102 48.071 15.1023 48.0852C14.8409 48.1193 14.5966 48.1747 14.3693 48.2514C14.1449 48.3253 13.9631 48.4375 13.8239 48.5881C13.6875 48.7358 13.6193 48.9375 13.6193 49.1932C13.6193 49.5426 13.7486 49.8068 14.0071 49.9858C14.2685 50.1619 14.5994 50.25 15 50.25ZM22.2813 51.1364C21.6676 51.1364 21.1392 50.9915 20.696 50.7017C20.2529 50.4119 19.9119 50.0128 19.6733 49.5043C19.4347 48.9957 19.3154 48.4148 19.3154 47.7614C19.3154 47.0966 19.4375 46.5099 19.6818 46.0014C19.929 45.4901 20.2727 45.0909 20.7131 44.804C21.1563 44.5142 21.6733 44.3693 22.2642 44.3693C22.7244 44.3693 23.1392 44.4545 23.5085 44.625C23.8779 44.7955 24.1804 45.0341 24.4162 45.3409C24.652 45.6477 24.7983 46.0057 24.8551 46.4148H23.8494C23.7727 46.1165 23.6023 45.8523 23.3381 45.6222C23.0767 45.3892 22.7244 45.2727 22.2813 45.2727C21.8892 45.2727 21.5455 45.375 21.25 45.5795C20.9574 45.7812 20.7287 46.0668 20.5639 46.4361C20.402 46.8026 20.321 47.233 20.321 47.7273C20.321 48.233 20.4006 48.6733 20.5597 49.0483C20.7216 49.4233 20.9489 49.7145 21.2415 49.9219C21.5369 50.1293 21.8835 50.233 22.2813 50.233C22.5426 50.233 22.7798 50.1875 22.9929 50.0966C23.206 50.0057 23.3864 49.875 23.5341 49.7045C23.6818 49.5341 23.7869 49.3295 23.8494 49.0909H24.8551C24.7983 49.4773 24.6577 49.8253 24.4333 50.1349C24.2117 50.4418 23.9176 50.6861 23.5512 50.8679C23.1875 51.0469 22.7642 51.1364 22.2813 51.1364ZM28.9244 51.1364C28.3108 51.1364 27.7823 50.9915 27.3392 50.7017C26.896 50.4119 26.5551 50.0128 26.3164 49.5043C26.0778 48.9957 25.9585 48.4148 25.9585 47.7614C25.9585 47.0966 26.0806 46.5099 26.325 46.0014C26.5721 45.4901 26.9159 45.0909 27.3562 44.804C27.7994 44.5142 28.3164 44.3693 28.9073 44.3693C29.3676 44.3693 29.7823 44.4545 30.1517 44.625C30.521 44.7955 30.8235 45.0341 31.0593 45.3409C31.2951 45.6477 31.4414 46.0057 31.4983 46.4148H30.4926C30.4159 46.1165 30.2454 45.8523 29.9812 45.6222C29.7198 45.3892 29.3676 45.2727 28.9244 45.2727C28.5323 45.2727 28.1886 45.375 27.8931 45.5795C27.6005 45.7812 27.3718 46.0668 27.2071 46.4361C27.0451 46.8026 26.9642 47.233 26.9642 47.7273C26.9642 48.233 27.0437 48.6733 27.2028 49.0483C27.3647 49.4233 27.592 49.7145 27.8846 49.9219C28.1801 50.1293 28.5267 50.233 28.9244 50.233C29.1858 50.233 29.423 50.1875 29.636 50.0966C29.8491 50.0057 30.0295 49.875 30.1772 49.7045C30.325 49.5341 30.4301 49.3295 30.4926 49.0909H31.4983C31.4414 49.4773 31.3008 49.8253 31.0764 50.1349C30.8548 50.4418 30.5608 50.6861 30.1943 50.8679C29.8306 51.0469 29.4073 51.1364 28.9244 51.1364ZM35.5675 51.1364C34.9766 51.1364 34.4581 50.9957 34.0121 50.7145C33.5689 50.4332 33.2223 50.0398 32.9723 49.5341C32.7252 49.0284 32.6016 48.4375 32.6016 47.7614C32.6016 47.0795 32.7252 46.4844 32.9723 45.9759C33.2223 45.4673 33.5689 45.0724 34.0121 44.7912C34.4581 44.5099 34.9766 44.3693 35.5675 44.3693C36.1584 44.3693 36.6755 44.5099 37.1187 44.7912C37.5647 45.0724 37.9113 45.4673 38.1584 45.9759C38.4084 46.4844 38.5334 47.0795 38.5334 47.7614C38.5334 48.4375 38.4084 49.0284 38.1584 49.5341C37.9113 50.0398 37.5647 50.4332 37.1187 50.7145C36.6755 50.9957 36.1584 51.1364 35.5675 51.1364ZM35.5675 50.233C36.0164 50.233 36.3857 50.1179 36.6755 49.8878C36.9652 49.6577 37.1797 49.3551 37.3189 48.9801C37.4581 48.6051 37.5277 48.1989 37.5277 47.7614C37.5277 47.3239 37.4581 46.9162 37.3189 46.5384C37.1797 46.1605 36.9652 45.8551 36.6755 45.6222C36.3857 45.3892 36.0164 45.2727 35.5675 45.2727C35.1187 45.2727 34.7493 45.3892 34.4596 45.6222C34.1698 45.8551 33.9553 46.1605 33.8161 46.5384C33.6769 46.9162 33.6073 47.3239 33.6073 47.7614C33.6073 48.1989 33.6769 48.6051 33.8161 48.9801C33.9553 49.3551 34.1698 49.6577 34.4596 49.8878C34.7493 50.1179 35.1187 50.233 35.5675 50.233ZM40.0086 51V44.4545H40.9802V45.4773H41.0654C41.2018 45.1278 41.4219 44.8565 41.7259 44.6634C42.0299 44.4673 42.3949 44.3693 42.8211 44.3693C43.2529 44.3693 43.6123 44.4673 43.8992 44.6634C44.189 44.8565 44.4148 45.1278 44.5768 45.4773H44.6449C44.8126 45.1392 45.064 44.8707 45.3992 44.6719C45.7344 44.4702 46.1364 44.3693 46.6052 44.3693C47.1904 44.3693 47.6691 44.5526 48.0413 44.919C48.4134 45.2827 48.5995 45.8494 48.5995 46.6193V51H47.5938V46.6193C47.5938 46.1364 47.4617 45.7912 47.1975 45.5838C46.9333 45.3764 46.6222 45.2727 46.2643 45.2727C45.804 45.2727 45.4475 45.4119 45.1947 45.6903C44.9418 45.9659 44.8154 46.3153 44.8154 46.7386V51H43.7927V46.517C43.7927 46.1449 43.6719 45.8452 43.4305 45.6179C43.189 45.3878 42.8779 45.2727 42.4972 45.2727C42.2359 45.2727 41.9915 45.3423 41.7643 45.4815C41.5398 45.6207 41.358 45.8139 41.2188 46.0611C41.0824 46.3054 41.0143 46.5881 41.0143 46.9091V51H40.0086ZM50.3783 53.4545V44.4545H51.3499V45.4943H51.4692C51.543 45.3807 51.6453 45.2358 51.776 45.0597C51.9095 44.8807 52.0999 44.7216 52.347 44.5824C52.597 44.4403 52.9351 44.3693 53.3612 44.3693C53.9124 44.3693 54.3982 44.5071 54.8186 44.7827C55.2391 45.0582 55.5672 45.4489 55.803 45.9545C56.0388 46.4602 56.1567 47.0568 56.1567 47.7443C56.1567 48.4375 56.0388 49.0384 55.803 49.5469C55.5672 50.0526 55.2405 50.4446 54.8229 50.723C54.4053 50.9986 53.9237 51.1364 53.3783 51.1364C52.9578 51.1364 52.6212 51.0668 52.3683 50.9276C52.1155 50.7855 51.9209 50.625 51.7845 50.446C51.6482 50.2642 51.543 50.1136 51.4692 49.9943H51.3839V53.4545H50.3783ZM51.3669 47.7273C51.3669 48.2216 51.4393 48.6577 51.5842 49.0355C51.7291 49.4105 51.9408 49.7045 52.2192 49.9176C52.4976 50.1278 52.8385 50.233 53.2419 50.233C53.6624 50.233 54.0132 50.1222 54.2945 49.9006C54.5786 49.6761 54.7916 49.375 54.9337 48.9972C55.0786 48.6165 55.151 48.1932 55.151 47.7273C55.151 47.267 55.08 46.8523 54.9379 46.483C54.7987 46.1108 54.5871 45.8168 54.303 45.6009C54.0217 45.3821 53.668 45.2727 53.2419 45.2727C52.8328 45.2727 52.4891 45.3764 52.2107 45.5838C51.9322 45.7884 51.722 46.0753 51.58 46.4446C51.4379 46.8111 51.3669 47.2386 51.3669 47.7273ZM58.6364 42.2727V51H57.6308V42.2727H58.6364ZM60.4184 51V44.4545H61.4241V51H60.4184ZM60.9298 43.3636C60.7338 43.3636 60.5647 43.2969 60.4227 43.1634C60.2835 43.0298 60.2139 42.8693 60.2139 42.6818C60.2139 42.4943 60.2835 42.3338 60.4227 42.2003C60.5647 42.0668 60.7338 42 60.9298 42C61.1258 42 61.2934 42.0668 61.4326 42.2003C61.5747 42.3338 61.6457 42.4943 61.6457 42.6818C61.6457 42.8693 61.5747 43.0298 61.4326 43.1634C61.2934 43.2969 61.1258 43.3636 60.9298 43.3636ZM67.8424 45.9205L66.939 46.1761C66.8822 46.0256 66.7984 45.8793 66.6876 45.7372C66.5797 45.5923 66.4319 45.473 66.2444 45.3793C66.0569 45.2855 65.8169 45.2386 65.5243 45.2386C65.1237 45.2386 64.7899 45.331 64.5228 45.5156C64.2586 45.6974 64.1265 45.929 64.1265 46.2102C64.1265 46.4602 64.2174 46.6577 64.3993 46.8026C64.5811 46.9474 64.8652 47.0682 65.2515 47.1648L66.2231 47.4034C66.8084 47.5455 67.2444 47.7628 67.5314 48.0554C67.8183 48.3452 67.9618 48.7187 67.9618 49.1761C67.9618 49.5511 67.8538 49.8864 67.6379 50.1818C67.4248 50.4773 67.1265 50.7102 66.743 50.8807C66.3595 51.0511 65.9135 51.1364 65.4049 51.1364C64.7373 51.1364 64.1848 50.9915 63.7473 50.7017C63.3098 50.4119 63.0328 49.9886 62.9163 49.4318L63.8709 49.1932C63.9618 49.5455 64.1336 49.8097 64.3865 49.9858C64.6422 50.1619 64.976 50.25 65.3879 50.25C65.8566 50.25 66.2288 50.1506 66.5044 49.9517C66.7828 49.75 66.922 49.5085 66.922 49.2273C66.922 49 66.8424 48.8097 66.6834 48.6562C66.5243 48.5 66.2799 48.3835 65.9504 48.3068L64.8595 48.0511C64.2601 47.9091 63.8197 47.6889 63.5385 47.3906C63.2601 47.0895 63.1209 46.7131 63.1209 46.2614C63.1209 45.892 63.2245 45.5653 63.4319 45.2812C63.6422 44.9972 63.9277 44.7741 64.2885 44.6122C64.6521 44.4503 65.064 44.3693 65.5243 44.3693C66.172 44.3693 66.6805 44.5114 67.0498 44.7955C67.422 45.0795 67.6862 45.4545 67.8424 45.9205ZM70.4213 47.0625V51H69.4156V42.2727H70.4213V45.4773H70.5065C70.6599 45.1392 70.89 44.8707 71.1969 44.6719C71.5065 44.4702 71.9185 44.3693 72.4327 44.3693C72.8787 44.3693 73.2693 44.4588 73.6045 44.6378C73.9398 44.8139 74.1997 45.0852 74.3844 45.4517C74.5719 45.8153 74.6656 46.2784 74.6656 46.8409V51H73.6599V46.9091C73.6599 46.3892 73.525 45.9872 73.2551 45.7031C72.9881 45.4162 72.6173 45.2727 72.1429 45.2727C71.8133 45.2727 71.5179 45.3423 71.2565 45.4815C70.998 45.6207 70.7935 45.8239 70.6429 46.0909C70.4952 46.358 70.4213 46.6818 70.4213 47.0625ZM81.6866 51.1534C81.2718 51.1534 80.8954 51.0753 80.5573 50.919C80.2193 50.7599 79.9508 50.5312 79.7519 50.233C79.5531 49.9318 79.4536 49.5682 79.4536 49.142C79.4536 48.767 79.5275 48.4631 79.6752 48.2301C79.823 47.9943 80.0204 47.8097 80.2676 47.6761C80.5147 47.5426 80.7874 47.4432 81.0857 47.3778C81.3869 47.3097 81.6894 47.2557 81.9934 47.2159C82.3911 47.1648 82.7136 47.1264 82.9607 47.1009C83.2107 47.0724 83.3926 47.0256 83.5062 46.9602C83.6227 46.8949 83.6809 46.7812 83.6809 46.6193V46.5852C83.6809 46.1648 83.5658 45.8381 83.3357 45.6051C83.1085 45.3722 82.7633 45.2557 82.3002 45.2557C81.8201 45.2557 81.4437 45.3608 81.171 45.571C80.8982 45.7812 80.7065 46.0057 80.5957 46.2443L79.6411 45.9034C79.8116 45.5057 80.0389 45.196 80.323 44.9744C80.6099 44.75 80.9224 44.5937 81.2605 44.5057C81.6014 44.4148 81.9366 44.3693 82.2661 44.3693C82.4764 44.3693 82.7178 44.3949 82.9906 44.446C83.2661 44.4943 83.5318 44.5952 83.7874 44.7486C84.046 44.902 84.2605 45.1335 84.4309 45.4432C84.6014 45.7528 84.6866 46.1676 84.6866 46.6875V51H83.6809V50.1136H83.6298C83.5616 50.2557 83.448 50.4077 83.2889 50.5696C83.1298 50.7315 82.9181 50.8693 82.6539 50.983C82.3897 51.0966 82.0673 51.1534 81.6866 51.1534ZM81.84 50.25C82.2377 50.25 82.573 50.1719 82.8457 50.0156C83.1212 49.8594 83.3286 49.6577 83.4678 49.4105C83.6099 49.1634 83.6809 48.9034 83.6809 48.6307V47.7102C83.6383 47.7614 83.5445 47.8082 83.3997 47.8509C83.2576 47.8906 83.0928 47.9261 82.9053 47.9574C82.7207 47.9858 82.5403 48.0114 82.3641 48.0341C82.1908 48.054 82.0502 48.071 81.9423 48.0852C81.6809 48.1193 81.4366 48.1747 81.2093 48.2514C80.9849 48.3253 80.8031 48.4375 80.6639 48.5881C80.5275 48.7358 80.4593 48.9375 80.4593 49.1932C80.4593 49.5426 80.5886 49.8068 80.8471 49.9858C81.1085 50.1619 81.4394 50.25 81.84 50.25ZM92.6238 44.4545V45.3068H89.2317V44.4545H92.6238ZM90.2204 42.8864H91.226V49.125C91.226 49.4091 91.2672 49.6222 91.3496 49.7642C91.4348 49.9034 91.5428 49.9972 91.6735 50.0455C91.807 50.0909 91.9476 50.1136 92.0954 50.1136C92.2062 50.1136 92.2971 50.108 92.3681 50.0966C92.4391 50.0824 92.4959 50.071 92.5385 50.0625L92.7431 50.9659C92.6749 50.9915 92.5797 51.017 92.4576 51.0426C92.3354 51.071 92.1806 51.0852 91.9931 51.0852C91.709 51.0852 91.4306 51.0241 91.1579 50.902C90.888 50.7798 90.6635 50.5938 90.4846 50.3438C90.3084 50.0938 90.2204 49.7784 90.2204 49.3977V42.8864ZM96.0027 51.1534C95.5879 51.1534 95.2115 51.0753 94.8734 50.919C94.5354 50.7599 94.2669 50.5312 94.068 50.233C93.8692 49.9318 93.7697 49.5682 93.7697 49.142C93.7697 48.767 93.8436 48.4631 93.9913 48.2301C94.1391 47.9943 94.3365 47.8097 94.5837 47.6761C94.8308 47.5426 95.1035 47.4432 95.4018 47.3778C95.703 47.3097 96.0055 47.2557 96.3095 47.2159C96.7072 47.1648 97.0297 47.1264 97.2768 47.1009C97.5268 47.0724 97.7087 47.0256 97.8223 46.9602C97.9388 46.8949 97.997 46.7812 97.997 46.6193V46.5852C97.997 46.1648 97.8819 45.8381 97.6518 45.6051C97.4246 45.3722 97.0794 45.2557 96.6163 45.2557C96.1362 45.2557 95.7598 45.3608 95.4871 45.571C95.2143 45.7812 95.0226 46.0057 94.9118 46.2443L93.9572 45.9034C94.1277 45.5057 94.355 45.196 94.6391 44.9744C94.926 44.75 95.2385 44.5937 95.5766 44.5057C95.9175 44.4148 96.2527 44.3693 96.5822 44.3693C96.7925 44.3693 97.0339 44.3949 97.3067 44.446C97.5822 44.4943 97.8479 44.5952 98.1035 44.7486C98.3621 44.902 98.5766 45.1335 98.747 45.4432C98.9175 45.7528 99.0027 46.1676 99.0027 46.6875V51H97.997V50.1136H97.9459C97.8777 50.2557 97.7641 50.4077 97.605 50.5696C97.4459 50.7315 97.2342 50.8693 96.97 50.983C96.7058 51.0966 96.3834 51.1534 96.0027 51.1534ZM96.1561 50.25C96.5538 50.25 96.8891 50.1719 97.1618 50.0156C97.4373 49.8594 97.6447 49.6577 97.7839 49.4105C97.926 49.1634 97.997 48.9034 97.997 48.6307V47.7102C97.9544 47.7614 97.8606 47.8082 97.7158 47.8509C97.5737 47.8906 97.4089 47.9261 97.2214 47.9574C97.0368 47.9858 96.8564 48.0114 96.6802 48.0341C96.5069 48.054 96.3663 48.071 96.2584 48.0852C95.997 48.1193 95.7527 48.1747 95.5254 48.2514C95.301 48.3253 95.1192 48.4375 94.98 48.5881C94.8436 48.7358 94.7754 48.9375 94.7754 49.1932C94.7754 49.5426 94.9047 49.8068 95.1632 49.9858C95.4246 50.1619 95.7555 50.25 96.1561 50.25ZM105.415 45.9205L104.511 46.1761C104.454 46.0256 104.371 45.8793 104.26 45.7372C104.152 45.5923 104.004 45.473 103.817 45.3793C103.629 45.2855 103.389 45.2386 103.096 45.2386C102.696 45.2386 102.362 45.331 102.095 45.5156C101.831 45.6974 101.699 45.929 101.699 46.2102C101.699 46.4602 101.79 46.6577 101.971 46.8026C102.153 46.9474 102.437 47.0682 102.824 47.1648L103.795 47.4034C104.381 47.5455 104.817 47.7628 105.104 48.0554C105.39 48.3452 105.534 48.7187 105.534 49.1761C105.534 49.5511 105.426 49.8864 105.21 50.1818C104.997 50.4773 104.699 50.7102 104.315 50.8807C103.932 51.0511 103.486 51.1364 102.977 51.1364C102.31 51.1364 101.757 50.9915 101.319 50.7017C100.882 50.4119 100.605 49.9886 100.488 49.4318L101.443 49.1932C101.534 49.5455 101.706 49.8097 101.959 49.9858C102.214 50.1619 102.548 50.25 102.96 50.25C103.429 50.25 103.801 50.1506 104.077 49.9517C104.355 49.75 104.494 49.5085 104.494 49.2273C104.494 49 104.415 48.8097 104.256 48.6562C104.096 48.5 103.852 48.3835 103.523 48.3068L102.432 48.0511C101.832 47.9091 101.392 47.6889 101.111 47.3906C100.832 47.0895 100.693 46.7131 100.693 46.2614C100.693 45.892 100.797 45.5653 101.004 45.2812C101.214 44.9972 101.5 44.7741 101.861 44.6122C102.224 44.4503 102.636 44.3693 103.096 44.3693C103.744 44.3693 104.253 44.5114 104.622 44.7955C104.994 45.0795 105.258 45.4545 105.415 45.9205ZM107.925 48.6136L107.908 47.3693H108.113L110.976 44.4545H112.221L109.17 47.5398H109.084L107.925 48.6136ZM106.988 51V42.2727H107.993V51H106.988ZM111.147 51L108.59 47.7614L109.306 47.0625L112.425 51H111.147ZM114.188 51.0682C113.978 51.0682 113.797 50.9929 113.647 50.8423C113.496 50.6918 113.421 50.5114 113.421 50.3011C113.421 50.0909 113.496 49.9105 113.647 49.7599C113.797 49.6094 113.978 49.5341 114.188 49.5341C114.398 49.5341 114.579 49.6094 114.729 49.7599C114.88 49.9105 114.955 50.0909 114.955 50.3011C114.955 50.4403 114.92 50.5682 114.849 50.6847C114.78 50.8011 114.688 50.8949 114.572 50.9659C114.458 51.0341 114.33 51.0682 114.188 51.0682Z" fill="white"/>
</svg>
