<svg width="24" height="24" viewBox="0 0 24 24" fill="none" xmlns="http://www.w3.org/2000/svg">
<path fill-rule="evenodd" clip-rule="evenodd" d="M2 11.6C2 7.075 2 4.812 3.406 3.406C4.812 2 7.075 2 11.6 2H12.4C16.925 2 19.188 2 20.594 3.406C22 4.812 22 7.074 22 11.6V12.4C22 16.925 22 19.188 20.594 20.594C19.188 22 16.925 22 12.4 22H11.6C7.075 22 4.812 22 3.406 20.594C2 19.188 2 16.925 2 12.4V11.6ZM5 8C5.112 13.619 7.982 17 12.711 17H12.985V13.786C14.708 13.966 15.992 15.29 16.517 17H19C18.326 14.442 16.58 13.027 15.494 12.487C16.579 11.819 18.114 10.199 18.476 8H16.216C15.742 9.788 14.332 11.408 12.984 11.562V8H10.69V14.236C9.292 13.876 7.47 12.127 7.395 8H5Z" fill="white"/>
</svg>
