<svg width="24" height="24" viewBox="0 0 24 24" fill="none" xmlns="http://www.w3.org/2000/svg">
<path d="M12.417 2C16.934 2 19.193 2 20.597 3.403C22.001 4.806 22 7.066 22 11.583V12.417C22 16.934 22 19.193 20.597 20.597C19.194 22.001 16.934 22 12.417 22H11.583C7.066 22 4.807 22 3.403 20.597C1.999 19.194 2 16.934 2 12.417V11.583C2 7.066 2 4.807 3.403 3.403C4.806 1.999 7.066 2 11.583 2H12.417ZM15.787 12.727C15.7088 12.6262 15.6112 12.5421 15.4999 12.4797C15.3887 12.4173 15.2661 12.3777 15.1393 12.3635C15.0125 12.3492 14.8842 12.3605 14.7618 12.3967C14.6395 12.4328 14.5256 12.4931 14.427 12.574C14.407 12.59 13.499 13.294 12.01 13.294C10.52 13.294 9.593 12.59 9.573 12.574C9.47435 12.4931 9.3605 12.4328 9.23816 12.3967C9.11582 12.3605 8.98748 12.3492 8.86071 12.3635C8.73394 12.3777 8.61131 12.4173 8.50006 12.4797C8.38882 12.5421 8.29121 12.6262 8.213 12.727C8.05268 12.9321 7.97866 13.1916 8.00667 13.4504C8.03468 13.7093 8.16251 13.9469 8.363 14.113C8.408 14.151 9.297 14.857 10.762 15.146L8.72 17.32C8.54145 17.5098 8.44404 17.7618 8.44853 18.0224C8.45301 18.2829 8.55903 18.5314 8.744 18.715C8.8347 18.8046 8.94244 18.8752 9.06086 18.9226C9.17928 18.9699 9.30598 18.993 9.43349 18.9906C9.56099 18.9882 9.68672 18.9603 9.80326 18.9085C9.91979 18.8566 10.0248 18.782 10.112 18.689L12.009 16.629L14.097 18.703C14.186 18.7943 14.2923 18.8669 14.4098 18.9165C14.5273 18.966 14.6535 18.9915 14.781 18.9915C14.9085 18.9915 15.0347 18.966 15.1522 18.9165C15.2697 18.8669 15.376 18.7943 15.465 18.703C15.6469 18.5161 15.7486 18.2656 15.7484 18.0048C15.7482 17.744 15.6462 17.4936 15.464 17.307L13.314 15.134C14.738 14.838 15.592 14.15 15.637 14.114C15.8378 13.9479 15.9658 13.71 15.9938 13.451C16.0218 13.1919 15.9476 12.9322 15.787 12.727ZM12.057 4.991C10.093 4.991 8.5 6.616 8.5 8.62C8.5 10.624 10.093 12.248 12.059 12.248C14.024 12.248 15.617 10.624 15.617 8.62C15.617 6.616 14.024 4.992 12.059 4.992M12.059 7.12C12.872 7.12 13.531 7.792 13.531 8.62C13.531 9.448 12.872 10.12 12.06 10.12C11.248 10.12 10.589 9.448 10.589 8.62C10.589 7.792 11.247 7.12 12.059 7.12Z" fill="white"/>
</svg>
