<svg width="24" height="24" viewBox="0 0 24 24" fill="none" xmlns="http://www.w3.org/2000/svg">
<path d="M12 2C17.523 2 22 6.477 22 12C22 17.523 17.523 22 12 22C6.477 22 2 17.523 2 12C2 6.477 6.477 2 12 2ZM15.45 16.076C15.633 15.512 16.495 9.887 16.602 8.779C16.634 8.443 16.528 8.22 16.32 8.121C16.069 8 15.697 8.061 15.265 8.216C14.673 8.43 7.102 11.644 6.665 11.83C6.25 12.006 5.858 12.198 5.858 12.477C5.858 12.672 5.974 12.782 6.294 12.897C6.84508 13.0816 7.40094 13.2517 7.961 13.407C8.438 13.537 8.981 13.423 9.285 13.234C9.608 13.034 13.331 10.543 13.598 10.324C13.865 10.106 14.078 10.386 13.86 10.604C13.642 10.822 11.086 13.303 10.75 13.647C10.34 14.063 10.63 14.496 10.905 14.669C11.218 14.866 13.473 16.379 13.812 16.621C14.152 16.863 14.496 16.973 14.812 16.973C15.128 16.973 15.292 16.558 15.45 16.076Z" fill="white"/>
</svg>
