<svg width="24" height="24" viewBox="0 0 24 24" fill="none" xmlns="http://www.w3.org/2000/svg">
<path d="M12 5C12.026 5 18.263 5.001 19.825 5.429C20.682 5.659 21.357 6.334 21.588 7.19C22.016 8.755 22 12.017 22 12.017C22 12.04 21.998 15.267 21.588 16.827C21.4736 17.2489 21.2507 17.6334 20.9413 17.9422C20.632 18.2511 20.2471 18.4734 19.825 18.587C18.263 19 12.026 19 12 19C12 19 5.756 19 4.175 18.571C3.7528 18.4573 3.36781 18.2348 3.05846 17.9258C2.7491 17.6168 2.5262 17.2321 2.412 16.81C2 15.26 2 12 2 12C2 12 2 8.755 2.412 7.19C2.52902 6.76747 2.75259 6.38208 3.06129 6.07075C3.36999 5.75942 3.75348 5.53259 4.175 5.412C5.74 5 12 5 12 5ZM10 15L15 12L10 9V15Z" fill="white"/>
</svg>
