<svg width="22" height="22" viewBox="0 0 22 22" fill="none" xmlns="http://www.w3.org/2000/svg">
<path d="M15.2724 7.91755C16.6059 8.87415 18.2394 9.43699 20.0037 9.43699V6.02983C19.6698 6.0299 19.3368 5.99496 19.0101 5.9255V8.60742C17.246 8.60742 15.6126 8.04458 14.2788 7.08805V14.0411C14.2788 17.5193 11.4692 20.3388 8.00347 20.3388C6.71035 20.3388 5.50844 19.9465 4.51001 19.2736C5.64955 20.4429 7.23872 21.1683 8.99687 21.1683C12.4628 21.1683 15.2726 18.3488 15.2726 14.8704V7.91755H15.2724ZM16.4981 4.48015C15.8167 3.73299 15.3692 2.76742 15.2724 1.69995V1.26172H14.3308C14.5678 2.61848 15.3763 3.77761 16.4981 4.48015ZM6.70205 16.6045C6.32131 16.1035 6.11556 15.4906 6.11648 14.8605C6.11648 13.2696 7.4016 11.9798 8.98709 11.9798C9.28257 11.9797 9.57628 12.0251 9.85787 12.1148V8.63147C9.52879 8.58621 9.19667 8.567 8.86469 8.57405V11.2853C8.58288 11.1956 8.28903 11.1501 7.99348 11.1504C6.40799 11.1504 5.12294 12.4401 5.12294 14.0311C5.12294 15.1561 5.76529 16.13 6.70205 16.6045Z" fill="white"/>
<path d="M14.2788 7.08798C15.6126 8.04451 17.2459 8.60735 19.0101 8.60735V5.92543C18.0253 5.71493 17.1536 5.19848 16.4981 4.48015C15.3762 3.77754 14.5678 2.6184 14.3308 1.26172H11.8575V14.8703C11.8519 16.4568 10.569 17.7414 8.98692 17.7414C8.05462 17.7414 7.22637 17.2954 6.70182 16.6045C5.76512 16.13 5.12278 15.156 5.12278 14.0312C5.12278 12.4403 6.40782 11.1504 7.99331 11.1504C8.29709 11.1504 8.58987 11.1979 8.86452 11.2854V8.57412C5.45972 8.64471 2.72144 11.4367 2.72144 14.8704C2.72144 16.5844 3.40333 18.1383 4.51006 19.2737C5.50848 19.9465 6.71039 20.3389 8.00352 20.3389C11.4693 20.3389 14.2789 17.5192 14.2789 14.0411V7.08798H14.2788Z" fill="white"/>
<path d="M19.0102 5.92478V5.19961C18.1222 5.20096 17.2517 4.95139 16.4982 4.47942C17.1652 5.21221 18.0434 5.71748 19.0102 5.92478ZM14.3309 1.26107C14.3083 1.1314 14.291 1.00089 14.2789 0.869873V0.431641H10.864V14.0403C10.8585 15.6266 9.57567 16.9112 7.99344 16.9112C7.52892 16.9112 7.09034 16.8005 6.70194 16.6039C7.22649 17.2947 8.05475 17.7406 8.98705 17.7406C10.569 17.7406 11.8521 16.4562 11.8577 14.8697V1.26107H14.3309ZM8.86479 8.57346V7.80147C8.57944 7.76233 8.29176 7.74269 8.00372 7.74283C4.53768 7.74276 1.72803 10.5624 1.72803 14.0403C1.72803 16.2208 2.83227 18.1425 4.51025 19.2729C3.40353 18.1376 2.72163 16.5836 2.72163 14.8696C2.72163 11.436 5.45985 8.64406 8.86479 8.57346Z" fill="white"/>
</svg>
